<?xml version="1.0" standalone="no"?>
<!DOCTYPE svg PUBLIC "-//W3C//DTD SVG 20010904//EN"
 "http://www.w3.org/TR/2001/REC-SVG-20010904/DTD/svg10.dtd">
<svg version="1.0" xmlns="http://www.w3.org/2000/svg"
 width="300.000000pt" height="300.000000pt" viewBox="0 0 300.000000 300.000000"
 preserveAspectRatio="xMidYMid meet">
<metadata>
Created by potrace 1.11, written by Peter Selinger 2001-2013
</metadata>
<g transform="translate(0.000000,300.000000) scale(0.100000,-0.100000)"
fill="#000000" stroke="none">
<path d="M1457 2984 c-1 -1 -38 -5 -83 -8 -95 -8 -121 -12 -209 -32 -470 -107
-876 -462 -1048 -914 -42 -110 -66 -197 -81 -295 -18 -120 -23 -289 -11 -400
8 -69 37 -203 65 -290 130 -417 471 -775 889 -932 78 -29 235 -71 299 -78 26
-3 63 -8 82 -11 41 -6 266 -7 295 0 11 2 47 7 79 11 80 9 228 48 321 85 412
164 729 497 869 914 68 200 91 474 59 686 -75 505 -418 944 -891 1144 -107 45
-257 89 -342 100 -111 14 -151 18 -219 19 -40 1 -73 1 -74 1z m348 -102 c591
-134 1035 -609 1112 -1192 9 -71 10 -288 1 -366 -28 -241 -145 -518 -302 -709
-52 -64 -165 -175 -213 -212 -21 -15 -40 -31 -43 -34 -9 -11 -143 -95 -187
-118 l-43 -21 0 209 0 209 100 73 c58 42 102 82 105 93 2 12 3 379 2 817 l-2
795 -28 43 c-34 51 -100 94 -187 123 -63 21 -82 22 -594 23 -582 2 -622 -1
-733 -55 -71 -35 -118 -84 -133 -139 -7 -26 -9 -302 -8 -831 l3 -793 105 -77
105 -77 3 -202 2 -202 -40 21 c-371 189 -670 612 -726 1026 -3 27 -8 58 -10
69 -6 27 -6 284 0 293 2 4 7 30 10 59 17 153 84 346 175 501 62 106 127 189
231 292 196 197 454 333 720 383 47 9 94 18 105 21 11 2 101 3 200 1 137 -2
202 -8 270 -23z m283 -355 c29 -8 73 -27 97 -42 87 -50 80 21 81 -862 l0 -784
-40 -32 c-63 -51 -676 -498 -706 -515 -28 -16 16 -46 -741 502 l-57 41 0 782
0 782 22 33 c24 36 129 94 184 102 19 2 36 6 38 8 2 2 243 3 536 2 448 -1 541
-4 586 -17z m-18 -2126 l0 -200 -57 -21 c-162 -61 -331 -91 -511 -91 -116 0
-152 4 -325 36 -32 6 -207 64 -229 76 -16 9 -18 28 -18 199 0 105 2 190 5 190
3 0 128 -89 278 -197 149 -108 280 -196 289 -196 9 1 140 92 290 202 150 111
274 201 275 201 2 0 3 -90 3 -199z"/>
<path d="M1361 1630 c-253 -85 -330 -410 -141 -596 143 -142 377 -140 513 5
55 59 82 110 95 181 33 180 -72 358 -242 412 -58 18 -167 17 -225 -2z m221
-73 c200 -86 245 -339 86 -482 -148 -133 -373 -86 -456 95 -89 193 60 414 273
406 33 -2 77 -10 97 -19z"/>
</g>
</svg>
